<svg width="90" height="45" viewBox="0 0 90 45" fill="none" xmlns="http://www.w3.org/2000/svg">
<path d="M17.9989 42.8157C17.6147 43.0137 17.1978 43.112 16.7494 43.112C16.3259 43.112 15.9378 43.036 15.5838 42.8852C15.2298 42.7344 14.923 42.5207 14.6647 42.2454C14.4051 41.97 14.2045 41.6436 14.0629 41.2673C13.92 40.891 13.8492 40.4727 13.8492 40.0138C13.8492 39.5549 13.92 39.138 14.0629 38.7604C14.2058 38.3841 14.4064 38.0577 14.6647 37.7823C14.923 37.507 15.2298 37.2933 15.5838 37.1425C15.9378 36.9917 16.3259 36.9157 16.7494 36.9157C17.1978 36.9157 17.6147 37.0114 17.9989 37.2054C18.383 37.3982 18.7265 37.6827 19.0281 38.059L20.3877 36.7374C19.9564 36.1775 19.4201 35.7527 18.7816 35.463C18.1431 35.1745 17.4298 35.029 16.6445 35.029C15.9457 35.029 15.2953 35.1509 14.6962 35.3935C14.0957 35.6373 13.5739 35.9835 13.1294 36.4332C12.6849 36.8829 12.3388 37.4113 12.0936 38.017C11.8471 38.6227 11.7239 39.2888 11.7239 40.0138C11.7239 40.7389 11.8471 41.4049 12.0936 42.0107C12.3401 42.6164 12.6823 43.1448 13.1228 43.5945C13.5634 44.0442 14.0826 44.3903 14.6831 44.6342C15.2835 44.8768 15.9325 44.9987 16.6314 44.9987C17.4259 44.9987 18.1418 44.8518 18.7803 44.5582C19.4188 44.2645 19.9537 43.837 20.3864 43.2772L19.0281 41.9556C18.7252 42.3319 18.383 42.619 17.9989 42.8157Z" fill="#CE014D"/>
<path d="M28.8181 36.4332C28.3697 35.9835 27.8453 35.6374 27.2448 35.3935C26.6443 35.1509 25.9861 35.029 25.2702 35.029C24.5531 35.029 23.8949 35.1536 23.2957 35.4014C22.6952 35.6492 22.1708 35.9979 21.7224 36.4476C21.274 36.8973 20.9265 37.4231 20.68 38.0249C20.4335 38.6267 20.3103 39.2901 20.3103 40.0152C20.3103 40.731 20.4335 41.3918 20.68 41.9976C20.9265 42.6033 21.274 43.1317 21.7224 43.5814C22.1708 44.0311 22.6978 44.3799 23.3023 44.6277C23.9067 44.8755 24.5675 45 25.2834 45C25.9914 45 26.6456 44.8781 27.2448 44.6355C27.8453 44.393 28.3697 44.0455 28.8181 43.5958C29.2665 43.1461 29.614 42.6164 29.8604 42.0054C30.1069 41.3945 30.2302 40.7323 30.2302 40.0152C30.2302 39.2901 30.1069 38.6241 29.8604 38.0183C29.614 37.4113 29.2665 36.8842 28.8181 36.4332ZM27.8912 41.2607C27.7482 41.6331 27.5476 41.9582 27.2894 42.2388C27.0298 42.5194 26.7308 42.7344 26.3899 42.8865C26.049 43.0373 25.6754 43.1133 25.2702 43.1133C24.8638 43.1133 24.4888 43.0373 24.144 42.8865C23.7992 42.7357 23.4989 42.5194 23.2446 42.2388C22.9902 41.9582 22.7909 41.6331 22.6493 41.2607C22.5064 40.8884 22.4356 40.4741 22.4356 40.0152C22.4356 39.5563 22.5064 39.1407 22.6493 38.7683C22.7922 38.3959 22.9902 38.0708 23.2446 37.7902C23.4989 37.5109 23.7992 37.2946 24.144 37.1425C24.4888 36.9917 24.8651 36.9157 25.2702 36.9157C25.6754 36.9157 26.049 36.9917 26.3899 37.1425C26.7308 37.2933 27.0311 37.5096 27.2894 37.7902C27.5476 38.0708 27.7496 38.3959 27.8912 38.7683C28.0341 39.1407 28.1049 39.555 28.1049 40.0152C28.1049 40.4727 28.0341 40.8884 27.8912 41.2607Z" fill="#CE014D"/>
<path d="M36.6152 41.1781L33.2208 35.1942H31.4849V44.8335H33.4397V39.1485L36.1078 43.8003H37.0401L39.7108 39.0843L39.7331 44.8335H41.6893V35.1942H39.9402L36.6152 41.1781Z" fill="#CE014D"/>
<path d="M49.5363 35.6151C48.949 35.3345 48.2501 35.1955 47.4386 35.1955H43.5144V44.8348H45.6253V42.1772H47.4386C48.2501 42.1772 48.949 42.0356 49.5363 41.7498C50.1237 41.4653 50.5761 41.0641 50.896 40.5449C51.2159 40.027 51.3745 39.4042 51.3745 38.6791C51.3745 37.9633 51.2146 37.3431 50.896 36.82C50.5761 36.2955 50.1237 35.8943 49.5363 35.6151ZM48.772 39.9181C48.4442 40.2118 47.9604 40.3587 47.3219 40.3587H45.6253V37.0127H47.3219C47.9604 37.0127 48.4442 37.1569 48.772 37.4467C49.0997 37.7364 49.2636 38.1468 49.2636 38.6791C49.2636 39.2115 49.0997 39.6244 48.772 39.9181Z" fill="#CE014D"/>
<path d="M58.7168 40.5239C58.7168 41.4325 58.5398 42.092 58.1858 42.4997C57.8318 42.9088 57.3348 43.112 56.6963 43.112C56.0657 43.112 55.574 42.9075 55.22 42.4997C54.866 42.0907 54.689 41.4325 54.689 40.5239V35.1955H52.5781V40.5789C52.5781 42.0015 52.9413 43.095 53.6664 43.8567C54.3914 44.6185 55.397 45 56.6832 45C57.9602 45 58.9619 44.6198 59.687 43.8567C60.412 43.095 60.7752 42.0028 60.7752 40.5789V35.1955H58.7168V40.5239Z" fill="#CE014D"/>
<path d="M61.3193 37.0114H64.2208V44.8335H66.3186V37.0114H69.2188V35.1942H61.3193V37.0114Z" fill="#CE014D"/>
<path d="M72.1072 43.0438V40.8123H76.3146V39.0633H72.1072V36.9852H76.8718V35.1942H70.0212V44.8335H77.0396V43.0438H72.1072Z" fill="#CE014D"/>
<path d="M72.5469 32.2943L71.1045 33.9164H70.2012L71.6504 32.2943L70.2012 30.6723H71.1045L72.5469 32.2943ZM74.7939 32.2943L73.3516 33.9164H72.4482L73.8955 32.2943L72.4482 30.6723H73.3516L74.7939 32.2943ZM77.041 32.2943L75.5986 33.9164H74.6953L76.1445 32.2943L74.6953 30.6723H75.5986L77.041 32.2943ZM60.2334 29.1264C60.5887 29.1264 60.9182 29.1845 61.2197 29.3012C61.5224 29.4178 61.7834 29.5811 62.0049 29.7934C62.2251 30.0057 62.3973 30.2563 62.5205 30.5434C62.6424 30.8331 62.7041 31.1484 62.7041 31.4906C62.7041 31.8314 62.6437 32.146 62.5205 32.433C62.3986 32.7201 62.2265 32.9709 62.0049 33.1859C61.7834 33.3995 61.5224 33.5657 61.2197 33.681C60.9169 33.7977 60.5887 33.8559 60.2334 33.8559C59.8795 33.8558 59.5492 33.7961 59.2451 33.6781C58.941 33.5601 58.676 33.3941 58.4531 33.1791C58.2303 32.9641 58.0578 32.7133 57.9346 32.4262C57.8127 32.1391 57.751 31.8274 57.751 31.4906C57.751 31.1497 57.8113 30.8344 57.9346 30.5473C58.0578 30.2604 58.2305 30.0115 58.4531 29.7992C58.676 29.5868 58.9397 29.4211 59.2412 29.3031C59.544 29.1852 59.8743 29.1264 60.2334 29.1264ZM55.9961 32.3119V29.1928H56.8379V33.7914H56.1338L53.6045 30.6732V33.7914H52.7578V29.1928H53.4609L55.9961 32.3119ZM65.0693 32.6898L66.2588 29.1918H67.0479L68.208 32.7094L69.3857 29.1918H70.2012L68.6758 33.7914H67.7686L66.6318 30.392L65.4824 33.7914H64.5635L63.0381 29.1918H63.9258L65.0693 32.6898ZM60.2334 29.8764C60.0015 29.8764 59.7851 29.9159 59.5859 29.9945C59.3869 30.0731 59.2154 30.1858 59.0713 30.3324C58.9258 30.4792 58.8111 30.6498 58.7285 30.8451C58.646 31.0404 58.6045 31.2567 58.6045 31.4926C58.6045 31.7246 58.6459 31.9404 58.7285 32.1371C58.8124 32.3336 58.9271 32.505 59.0713 32.6518C59.2155 32.7985 59.3867 32.912 59.5859 32.9906C59.7851 33.0692 60.0015 33.1078 60.2334 33.1078C60.4654 33.1078 60.6797 33.0693 60.875 32.9906C61.069 32.9106 61.2396 32.7989 61.3838 32.6547C61.528 32.5105 61.6404 32.3386 61.7217 32.142C61.803 31.9453 61.8438 31.7286 61.8438 31.4926C61.8437 31.2567 61.8042 31.0387 61.7256 30.8422C61.647 30.6458 61.5343 30.4745 61.3877 30.3305C61.2409 30.185 61.0703 30.0732 60.875 29.9945C60.6796 29.9159 60.4655 29.8764 60.2334 29.8764Z" fill="url(#paint0_linear_7_172)"/>
<path d="M44.3828 0C48.9244 4.5979e-05 53.3335 0.891607 57.4883 2.64844C61.4977 4.34502 65.0985 6.77235 68.1875 9.86133C68.6629 10.3368 69.1207 10.826 69.5645 11.3252C70.3878 11.1879 71.2309 11.1086 72.0898 11.0938C72.099 11.1068 72.1071 11.1197 72.1162 11.1328C72.1948 11.1289 72.2749 11.1289 72.3535 11.1289C81.762 11.1342 89.4221 18.7658 89.4668 28.165V28.2451C89.434 35.2568 85.1725 41.2721 79.0996 43.8682C79.0944 43.8421 79.0886 43.8187 79.082 43.7939L78.9629 33.6826C79.0481 33.5804 79.131 33.4743 79.2109 33.3643C79.2542 33.3092 79.2937 33.2536 79.333 33.1973C79.363 33.1542 79.3941 33.1124 79.4229 33.0693V33.0674C79.4726 32.9967 79.519 32.9275 79.5635 32.8555C79.591 32.8148 79.6186 32.7708 79.6436 32.7275C79.6644 32.6936 79.6865 32.657 79.7061 32.623C79.7297 32.5824 79.7551 32.5429 79.7773 32.501C79.8166 32.4355 79.852 32.3675 79.8887 32.3008C79.924 32.234 79.9604 32.1655 79.9932 32.0986C80.0194 32.0502 80.0451 32.0019 80.0674 31.9521C80.0726 31.9417 80.0778 31.9294 80.083 31.9189C80.1013 31.8836 80.1181 31.8466 80.1338 31.8086C80.1507 31.7734 80.1667 31.737 80.1836 31.6992C80.2124 31.6338 80.2404 31.5693 80.2666 31.5039C80.285 31.4633 80.3017 31.4195 80.3174 31.3789C80.3239 31.3632 80.3307 31.3458 80.3359 31.3301C80.3647 31.2569 80.3918 31.1849 80.418 31.1104C80.4481 31.0251 80.4783 30.9368 80.5059 30.8477C80.5124 30.8268 80.5195 30.8048 80.5273 30.7852C80.5496 30.7183 80.5682 30.6512 80.5879 30.583C80.6036 30.5347 80.6149 30.4862 80.6279 30.4365C80.6279 30.4326 80.6299 30.4307 80.6299 30.4268C80.6456 30.3705 80.6585 30.3125 80.6729 30.2549C80.682 30.2209 80.6901 30.187 80.6992 30.1504C80.7202 30.0625 80.7369 29.9755 80.7539 29.8877C80.7553 29.8774 80.7594 29.8671 80.7607 29.8555C80.7778 29.7637 80.7952 29.6706 80.8096 29.5762C80.8109 29.5657 80.8131 29.5538 80.8145 29.542C80.8236 29.4869 80.8313 29.4304 80.8379 29.374C80.8431 29.3387 80.8489 29.302 80.8516 29.2666C80.8555 29.2378 80.8574 29.2062 80.8613 29.1748C80.8626 29.1539 80.8669 29.1352 80.8682 29.1143C80.8721 29.0764 80.875 29.0408 80.8789 29.0029C80.8789 28.9912 80.8799 28.9805 80.8799 28.9688C80.8851 28.9387 80.8861 28.907 80.8887 28.877C80.8939 28.8272 80.8981 28.7773 80.8994 28.7275C80.9033 28.683 80.9049 28.6373 80.9062 28.5928V28.5635C80.9115 28.4562 80.9131 28.3489 80.9131 28.2402C80.9131 28.1446 80.9112 28.0488 80.9072 27.9531C80.9072 27.944 80.9076 27.9359 80.9062 27.9268C80.9062 27.8614 80.9027 27.7959 80.8975 27.7305C80.8962 27.6808 80.8919 27.6307 80.8867 27.5811C80.8815 27.5089 80.876 27.439 80.8682 27.3682V27.3643C80.859 27.2804 80.8493 27.1952 80.8389 27.1113C80.8376 27.093 80.834 27.0756 80.8301 27.0586C80.8209 26.9839 80.809 26.9077 80.7959 26.833C80.7854 26.7649 80.7738 26.6967 80.7607 26.6299C80.7594 26.6168 80.7565 26.6036 80.7539 26.5918C80.7474 26.5487 80.7367 26.5083 80.7275 26.4678C80.7184 26.4245 80.7094 26.3834 80.7002 26.3428C80.6845 26.2694 80.6658 26.1935 80.6475 26.1201C80.6291 26.0467 80.6102 25.9702 80.5879 25.8994C80.5866 25.8931 80.5834 25.8881 80.582 25.8818C80.5703 25.8413 80.5599 25.799 80.5469 25.7598C80.5429 25.7506 80.542 25.7432 80.5381 25.7354C80.5224 25.6804 80.5079 25.6255 80.4883 25.5732C80.4883 25.572 80.4865 25.5697 80.4863 25.5684V25.5664C80.4602 25.4879 80.4337 25.4108 80.4062 25.335C80.3774 25.2576 80.3498 25.1828 80.3184 25.1055C80.3144 25.0963 80.3119 25.0867 80.3066 25.0762C80.2739 24.9963 80.2414 24.9138 80.2061 24.834C80.172 24.7541 80.1353 24.6753 80.0986 24.5967C80.0869 24.5706 80.0752 24.5456 80.0635 24.5195C80.0373 24.4684 80.0132 24.417 79.9883 24.3672C79.9765 24.3449 79.9659 24.324 79.9541 24.3018C79.9502 24.2952 79.9473 24.2881 79.9434 24.2803C79.9159 24.2293 79.8888 24.1776 79.8613 24.1279C79.8181 24.0494 79.7724 23.9692 79.7266 23.8906C79.7227 23.8854 79.7197 23.8792 79.7158 23.874C79.6857 23.8216 79.6529 23.7689 79.6201 23.7178C79.5742 23.6431 79.5254 23.5685 79.4756 23.4951C79.4297 23.4243 79.3808 23.3585 79.335 23.2891C79.2289 23.1399 79.1178 22.9958 79.0039 22.8545C78.9488 22.7863 78.8926 22.7173 78.835 22.6504C78.831 22.6465 78.8294 22.6455 78.8281 22.6416C78.7718 22.5788 78.7155 22.5147 78.6592 22.4531C78.5989 22.3876 78.5392 22.3233 78.4775 22.2617C78.4159 22.1962 78.3533 22.1342 78.2891 22.0752C78.2314 22.0189 78.1716 21.9622 78.1113 21.9072C78.0287 21.8338 77.9469 21.7606 77.8604 21.6885C77.8158 21.6531 77.7728 21.6161 77.7295 21.582C77.6469 21.5139 77.5627 21.4487 77.4775 21.3857C77.4107 21.3372 77.3462 21.2897 77.2793 21.2412C77.2125 21.1928 77.1443 21.1497 77.0762 21.1025C76.9923 21.0462 76.9072 20.9909 76.8193 20.9385C76.7315 20.886 76.6448 20.8337 76.5557 20.7852C76.4679 20.7354 76.3811 20.6878 76.292 20.6406C76.2175 20.6014 76.1429 20.5636 76.0684 20.5283C76.0527 20.5218 76.0381 20.5124 76.0225 20.5059C76.016 20.5046 76.0068 20.499 75.999 20.4951C75.8194 20.4112 75.6354 20.3329 75.4492 20.2607C75.3693 20.2306 75.2906 20.1994 75.208 20.1719C75.1477 20.1496 75.0896 20.1277 75.0293 20.1094C74.9665 20.0872 74.901 20.0662 74.8369 20.0479C74.7636 20.0256 74.6902 20.005 74.6143 19.9854C74.5409 19.9644 74.4647 19.9461 74.3887 19.9277C74.3375 19.9146 74.2836 19.9044 74.2324 19.8926C74.2206 19.8887 74.2091 19.8867 74.1973 19.8828C74.1592 19.8736 74.122 19.8659 74.084 19.8594C74.05 19.8528 74.0134 19.8467 73.9795 19.8389C73.9677 19.8349 73.9532 19.8333 73.9414 19.832C73.9035 19.8255 73.867 19.8158 73.8291 19.8105C73.774 19.8001 73.7185 19.7924 73.6621 19.7832C73.6504 19.7819 73.6384 19.7796 73.624 19.7783C73.5244 19.7626 73.4261 19.7497 73.3252 19.7393C73.2427 19.7288 73.1616 19.7214 73.0791 19.7148C73.0583 19.7109 73.0384 19.7112 73.0176 19.71C72.9835 19.706 72.9488 19.7031 72.9121 19.7031H72.8975C72.8412 19.6979 72.7835 19.6947 72.7246 19.6934C72.6973 19.6921 72.6699 19.6889 72.6426 19.6914C72.6032 19.6901 72.5647 19.6875 72.5254 19.6875C72.4691 19.6836 72.4115 19.6836 72.3525 19.6836C72.2753 19.6836 72.1993 19.6849 72.1221 19.6875C72.0593 19.6888 71.9935 19.692 71.9307 19.6973C71.9098 19.6973 71.8913 19.6973 71.873 19.7012C71.8154 19.7025 71.7559 19.7057 71.6982 19.7109C71.5986 19.7175 71.5 19.7275 71.4004 19.7393C71.3624 19.7445 71.3228 19.748 71.2861 19.752C71.2484 19.7572 71.2093 19.7611 71.1729 19.7676C71.0812 19.7794 70.9865 19.7935 70.8936 19.8105C70.8019 19.8263 70.7098 19.8436 70.6182 19.8633C70.567 19.8725 70.5166 19.8844 70.4668 19.8936C70.4276 19.9027 70.3897 19.9105 70.3506 19.9209C70.3049 19.9314 70.2602 19.9433 70.2158 19.9551C69.9419 20.0259 69.6752 20.1081 69.4131 20.2051C69.3751 20.2169 69.3394 20.2317 69.3027 20.2461C69.2295 20.2736 69.1563 20.3026 69.083 20.334C68.9991 20.3681 68.9146 20.4047 68.832 20.4414C68.7495 20.4794 68.6685 20.5167 68.5859 20.5586C68.5152 20.5927 68.4438 20.6286 68.373 20.668C68.2485 20.7309 68.1268 20.8 68.0049 20.8721C67.9552 20.9008 67.9054 20.9293 67.8584 20.9619C67.8466 20.9672 67.8341 20.9755 67.8223 20.9834C67.1535 19.4981 66.3852 18.0669 65.5254 16.6992C60.5563 10.5159 52.9324 6.55577 44.3828 6.55566C37.3254 6.55566 30.8981 9.25258 26.0752 13.6709C26.0742 13.6719 26.0738 13.6733 26.0732 13.6748C26.7864 14.114 27.4638 14.6061 28.1035 15.1436C28.169 15.1985 28.2347 15.2533 28.2988 15.3096C28.3827 15.3817 28.4672 15.4572 28.5498 15.5332C29.9742 16.8245 31.1781 18.3568 32.0996 20.0645L33.9199 19.0146L33.9209 31.9805L31.6816 30.6865L22.6914 25.4971L24.7168 24.3271C24.0101 22.9569 22.9435 21.8014 21.6416 20.9873C20.3292 20.1665 18.7751 19.6904 17.1113 19.6904C15.3675 19.6904 13.7453 20.2126 12.3936 21.1094C10.0797 22.6395 8.55664 25.2658 8.55664 28.2471C8.55673 29.9592 9.06019 31.556 9.92676 32.8945C9.96475 32.9548 10.0037 33.0127 10.043 33.0703C10.591 33.8714 11.2717 34.5739 12.0518 35.1455C11.6152 35.7302 11.2549 36.3755 10.9717 37.0703C10.539 38.1362 10.3193 39.3063 10.3193 40.5439C10.3194 41.7815 10.5391 42.9534 10.9717 44.0166C10.9874 44.0559 11.0038 44.0942 11.0195 44.1309C4.60178 41.7 0.0340884 35.5073 0 28.2451V28.165C0.0447298 18.7658 7.70419 11.1338 17.1113 11.1338C17.19 11.1338 17.269 11.1338 17.3477 11.1377C17.3567 11.1247 17.3646 11.1116 17.375 11.0986C18.0182 11.1097 18.6525 11.1579 19.2764 11.2383C19.6964 10.7689 20.13 10.3095 20.5781 9.86133C23.6671 6.77239 27.2671 4.34501 31.2764 2.64844C35.4313 0.891546 39.8411 0 44.3828 0Z" fill="url(#paint1_linear_7_172)"/>
<defs>
<linearGradient id="paint0_linear_7_172" x1="77.041" y1="32.2945" x2="52.7578" y2="32.2945" gradientUnits="userSpaceOnUse">
<stop stop-color="#36C7D2"/>
</linearGradient>
<linearGradient id="paint1_linear_7_172" x1="44.7334" y1="42.966" x2="44.7334" y2="0" gradientUnits="userSpaceOnUse">
<stop stop-color="#1A4B97"/>
<stop offset="1" stop-color="#36C7D2"/>
</linearGradient>
</defs>
</svg>
