<svg width="68" height="80" viewBox="0 0 68 80" fill="none" xmlns="http://www.w3.org/2000/svg">
<path fill-rule="evenodd" clip-rule="evenodd" d="M45.5228 14.8575C45.5228 15.712 46.2155 16.4046 47.0699 16.4046H62.3454V48.0413H5.57584V0H45.5228V14.8575ZM32.732 39.9094C32.483 40.637 31.6914 41.025 30.9638 40.7761C30.2362 40.5271 29.8483 39.7354 30.0972 39.0079L35.1597 24.2132C35.4086 23.4856 36.2003 23.0976 36.9279 23.3466C37.6555 23.5955 38.0435 24.3872 37.7945 25.1148L32.732 39.9094ZM53.4606 32.3364L44.9743 40.8227L43.0094 38.8578L49.5307 32.3364L43.0098 25.815L44.9742 23.8506L53.4606 32.3364ZM22.829 23.8506L14.3428 32.3368L22.8291 40.8227L24.7935 38.8582L18.2726 32.3368L24.7939 25.8155L22.829 23.8506Z" fill="#36C7D2"/>
<path d="M5.57584 73.4773H62.3454V80H5.57584V73.4773Z" fill="#36C7D2"/>
<path fill-rule="evenodd" clip-rule="evenodd" d="M67.9213 50.9186H0V70.5998H67.9213V50.9186ZM50.6113 53.8281C51.8391 53.8281 52.9019 54.0327 53.7996 54.442C54.7106 54.8513 55.4103 55.4321 55.8988 56.1847C56.3872 56.9372 56.6315 57.8283 56.6315 58.8581C56.6315 59.8747 56.3872 60.7658 55.8988 61.5315C55.4103 62.284 54.7106 62.8649 53.7996 63.2742C52.9019 63.6703 51.8391 63.8683 50.6113 63.8683H47.8191V67.6903H44.6109V53.8281H50.6113ZM52.6312 60.6404C52.1295 61.0497 51.3968 61.2543 50.4331 61.2543H47.8191V56.4421H50.4331C51.3968 56.4421 52.1295 56.6533 52.6312 57.0758C53.1329 57.4851 53.3837 58.0792 53.3837 58.8581C53.3837 59.6238 53.1329 60.2179 52.6312 60.6404ZM37.4532 67.6903L43.4535 53.8281H40.2652L35.9877 63.7297L31.7697 53.8281H28.3041L34.2847 67.6903H37.4532ZM23.9044 67.6903L23.8846 59.373L19.8051 66.2249H18.3595L14.2999 59.5512V67.6903H11.2898V53.8281H13.9434L19.1318 62.4425L24.2411 53.8281H26.8749L26.9145 67.6903H23.9044Z" fill="#36C7D2"/>
<path fill-rule="evenodd" clip-rule="evenodd" d="M48.4691 1.91109V13.4541H60.1046L48.4691 1.91109Z" fill="#36C7D2"/>
</svg>
