<svg width="98" height="80" viewBox="0 0 98 80" fill="none" xmlns="http://www.w3.org/2000/svg">
<path fill-rule="evenodd" clip-rule="evenodd" d="M28.5813 60.1567V69.0573C28.5813 72.3127 31.2204 74.9518 34.4758 74.9518H35.4694C35.376 74.4395 35.3272 73.9116 35.3272 73.3723C35.3272 68.5414 39.2435 64.6251 44.0744 64.6251C48.9054 64.6251 52.8217 68.5414 52.8217 73.3723C52.8217 73.9116 52.7729 74.4395 52.6795 74.9518H72.5917C72.4982 74.4395 72.4494 73.9116 72.4494 73.3723C72.4494 68.5414 76.3657 64.6251 81.1967 64.6251C86.0277 64.6251 89.9439 68.5414 89.9439 73.3723C89.9439 73.9116 89.8951 74.4395 89.8017 74.9518H91.3032C94.5586 74.9518 97.1977 72.3127 97.1977 69.0573V55.3445L85.2503 39.1302H70.7427V60.1567H28.5813ZM88.8372 58.2528V54.694L80.6314 43.9867H78.7403C77.8722 43.9867 77.1684 44.6905 77.1684 45.5586V58.2528C77.1684 59.1209 77.8722 59.8246 78.7403 59.8246H87.2654C88.1335 59.8246 88.8372 59.1209 88.8372 58.2528Z" fill="#36C7D2"/>
<path fill-rule="evenodd" clip-rule="evenodd" d="M44.1352 80C47.9773 80 51.092 76.8853 51.092 73.0432C51.092 69.2011 47.9773 66.0864 44.1352 66.0864C40.2931 66.0864 37.1784 69.2011 37.1784 73.0432C37.1784 76.8853 40.2931 80 44.1352 80ZM46.2865 73.0432C46.2865 74.2313 45.3233 75.1945 44.1352 75.1945C42.947 75.1945 41.9838 74.2313 41.9838 73.0432C41.9838 71.855 42.947 70.8918 44.1352 70.8918C45.3233 70.8918 46.2865 71.855 46.2865 73.0432Z" fill="#36C7D2"/>
<path fill-rule="evenodd" clip-rule="evenodd" d="M81.3517 80C85.1938 80 88.3084 76.8853 88.3084 73.0432C88.3084 69.2011 85.1938 66.0864 81.3517 66.0864C77.5095 66.0864 74.3949 69.2011 74.3949 73.0432C74.3949 76.8853 77.5095 80 81.3517 80ZM83.503 73.0432C83.503 74.2313 82.5398 75.1945 81.3516 75.1945C80.1635 75.1945 79.2003 74.2313 79.2003 73.0432C79.2003 71.855 80.1635 70.8918 81.3516 70.8918C82.5398 70.8918 83.503 71.855 83.503 73.0432Z" fill="#36C7D2"/>
<path fill-rule="evenodd" clip-rule="evenodd" d="M12.0884 29.0563C11.6543 29.0563 11.3024 29.4082 11.3024 29.8423V59.6784C11.3024 60.1124 11.6543 60.4643 12.0884 60.4643H23.2609C23.1943 60.1408 23.1592 59.8057 23.1592 59.4625C23.1592 57.9149 23.8713 56.5336 24.9857 55.6284V52.0742C24.9857 51.8572 25.1617 51.6813 25.3787 51.6813H33.0048C33.2218 51.6813 33.3978 51.8572 33.3978 52.0742V54.5255H36.0291V52.0742C36.0291 51.8572 36.205 51.6813 36.422 51.6813H44.0481C44.2652 51.6813 44.4411 51.8572 44.4411 52.0742V54.5255H57.8361V29.8423C57.8361 29.4082 57.4842 29.0563 57.0502 29.0563H12.0884ZM14.3355 34.6296H21.9616C22.1786 34.6296 22.3546 34.8055 22.3546 35.0226V40.7135C22.3546 40.9305 22.1786 41.1065 21.9616 41.1065H14.3355C14.1185 41.1065 13.9425 40.9305 13.9425 40.7135V35.0226C13.9425 34.8055 14.1185 34.6296 14.3355 34.6296ZM25.3787 34.6296C25.1617 34.6296 24.9857 34.8055 24.9857 35.0226V40.7135C24.9857 40.9305 25.1617 41.1065 25.3787 41.1065H33.0048C33.2218 41.1065 33.3978 40.9305 33.3978 40.7135V35.0226C33.3978 34.8055 33.2218 34.6296 33.0048 34.6296H25.3787ZM13.9425 43.5484C13.9425 43.3314 14.1185 43.1554 14.3355 43.1554H21.9616C22.1786 43.1554 22.3546 43.3314 22.3546 43.5484V49.2393C22.3546 49.4563 22.1786 49.6323 21.9616 49.6323H14.3355C14.1185 49.6323 13.9425 49.4563 13.9425 49.2393V43.5484ZM25.3787 43.1554C25.1617 43.1554 24.9857 43.3314 24.9857 43.5484V49.2393C24.9857 49.4563 25.1617 49.6323 25.3787 49.6323H33.0048C33.2218 49.6323 33.3978 49.4563 33.3978 49.2393V43.5484C33.3978 43.3314 33.2218 43.1554 33.0048 43.1554H25.3787ZM36.0291 43.5484C36.0291 43.3314 36.205 43.1554 36.422 43.1554H44.0481C44.2652 43.1554 44.4411 43.3314 44.4411 43.5484V49.2393C44.4411 49.4563 44.2652 49.6323 44.0481 49.6323H36.422C36.205 49.6323 36.0291 49.4563 36.0291 49.2393V43.5484ZM14.3355 51.6813C14.1185 51.6813 13.9425 51.8572 13.9425 52.0742V57.7651C13.9425 57.9822 14.1185 58.1581 14.3355 58.1581H21.9616C22.1786 58.1581 22.3546 57.9822 22.3546 57.7651V52.0742C22.3546 51.8572 22.1786 51.6813 21.9616 51.6813H14.3355Z" fill="#36C7D2"/>
<path fill-rule="evenodd" clip-rule="evenodd" d="M0.285314 14.7492L0.0327152 14.8579V14.7492H0.285314Z" fill="#36C7D2"/>
<path fill-rule="evenodd" clip-rule="evenodd" d="M0 14.872L0.0327152 14.8579V14.872H0Z" fill="#36C7D2"/>
<path d="M68.2674 14.5285L34.5531 0L0.285314 14.7492L0.0327152 14.8579V14.872V23.1219H4.97233L4.97233 66.3475H23.024V63.6286H7.69125L7.69125 23.1219H61.923V54.5964H64.642V23.1219H69.0495V14.8476L68.2674 14.5285Z" fill="#36C7D2"/>
</svg>
