<svg width="79" height="80" viewBox="0 0 79 80" fill="none" xmlns="http://www.w3.org/2000/svg">
<path d="M0 75.9083H77.4526V80H0V75.9083Z" fill="#36C7D2"/>
<path fill-rule="evenodd" clip-rule="evenodd" d="M60.2905 26.3217C59.7853 26.3217 59.3757 25.9122 59.3757 25.407V8.72441L38.7263 0L18.0769 8.72441V25.407C18.0769 25.9122 17.6673 26.3217 17.1621 26.3217H0V73.4285H47.0154V58.3179C47.0154 50.8856 53.0405 44.8606 60.4728 44.8606L60.6468 44.8617C67.9988 44.9548 73.9301 50.9437 73.9301 58.3179V73.4285H77.4526V26.3217H60.2905ZM3.7823 30.9333C3.7823 30.807 3.88469 30.7046 4.01099 30.7046H12.9873C13.1136 30.7046 13.216 30.807 13.216 30.9333V39.7935C13.216 39.9198 13.1136 40.0221 12.9873 40.0221H4.01099C3.88469 40.0221 3.7823 39.9198 3.7823 39.7935V30.9333ZM3.7823 45.445C3.7823 45.3187 3.88469 45.2163 4.01099 45.2163H12.9873C13.1136 45.2163 13.216 45.3187 13.216 45.445V54.3052C13.216 54.4315 13.1136 54.5339 12.9873 54.5339H4.01099C3.88469 54.5339 3.7823 54.4315 3.7823 54.3052V45.445ZM3.7823 59.9568C3.7823 59.8305 3.88469 59.7281 4.01099 59.7281H12.9873C13.1136 59.7281 13.216 59.8305 13.216 59.9568V68.817C13.216 68.9433 13.1136 69.0457 12.9873 69.0457H4.01099C3.88469 69.0457 3.7823 68.9433 3.7823 68.817V59.9568ZM18.7021 30.9333C18.7021 30.807 18.8045 30.7046 18.9308 30.7046H27.9072C28.0335 30.7046 28.1358 30.807 28.1358 30.9333V39.7935C28.1358 39.9198 28.0335 40.0221 27.9072 40.0221H18.9308C18.8045 40.0221 18.7021 39.9198 18.7021 39.7935V30.9333ZM18.7021 45.445C18.7021 45.3187 18.8045 45.2163 18.9308 45.2163H27.9072C28.0335 45.2163 28.1358 45.3187 28.1358 45.445V54.3052C28.1358 54.4315 28.0335 54.5339 27.9072 54.5339H18.9308C18.8045 54.5339 18.7021 54.4315 18.7021 54.3052V45.445ZM18.7021 59.9568C18.7021 59.8305 18.8045 59.7281 18.9308 59.7281H27.9072C28.0335 59.7281 28.1358 59.8305 28.1358 59.9568V68.817C28.1358 68.9433 28.0335 69.0457 27.9072 69.0457H18.9308C18.8045 69.0457 18.7021 68.9433 18.7021 68.817V59.9568ZM33.622 30.9333C33.622 30.807 33.7244 30.7046 33.8507 30.7046H42.827C42.9533 30.7046 43.0557 30.807 43.0557 30.9333V39.7935C43.0557 39.9198 42.9533 40.0221 42.827 40.0221H33.8507C33.7244 40.0221 33.622 39.9198 33.622 39.7935V30.9333ZM33.622 45.445C33.622 45.3187 33.7244 45.2163 33.8507 45.2163H42.827C42.9533 45.2163 43.0557 45.3187 43.0557 45.445V54.3052C43.0557 54.4315 42.9533 54.5339 42.827 54.5339H33.8507C33.7244 54.5339 33.622 54.4315 33.622 54.3052V45.445ZM33.622 59.9568C33.622 59.8305 33.7244 59.7281 33.8507 59.7281H42.827C42.9533 59.7281 43.0557 59.8305 43.0557 59.9568V68.817C43.0557 68.9433 42.9533 69.0457 42.827 69.0457H33.8507C33.7244 69.0457 33.622 68.9433 33.622 68.817V59.9568ZM48.5418 30.9333C48.5418 30.807 48.6442 30.7046 48.7705 30.7046H57.7468C57.8731 30.7046 57.9755 30.807 57.9755 30.9333V39.7935C57.9755 39.9198 57.8731 40.0221 57.7468 40.0221H48.7705C48.6442 40.0221 48.5418 39.9198 48.5418 39.7935V30.9333ZM63.4617 30.9333C63.4617 30.807 63.564 30.7046 63.6903 30.7046H72.6667C72.793 30.7046 72.8953 30.807 72.8953 30.9333V39.7935C72.8953 39.9198 72.793 40.0221 72.6667 40.0221H63.6903C63.564 40.0221 63.4617 39.9198 63.4617 39.7935V30.9333ZM29.5107 12.3363L38.7263 7.30962L47.9418 12.3363L38.7263 17.3629L29.5107 12.3363ZM32.8618 19.1893V15.8382L38.7263 19.0385L44.5907 15.8382V19.1893L38.7263 22.3896L32.8618 19.1893Z" fill="#36C7D2"/>
<path fill-rule="evenodd" clip-rule="evenodd" d="M70.9572 58.3179V73.4285H49.9884V66.883H53.2493C54.0221 66.883 54.6486 66.2565 54.6486 65.4837C54.6486 64.7108 54.0221 64.0843 53.2493 64.0843H49.9884V58.3179C49.9884 52.5276 54.6824 47.8335 60.4728 47.8335C66.2631 47.8335 70.9572 52.5276 70.9572 58.3179Z" fill="#36C7D2"/>
<path fill-rule="evenodd" clip-rule="evenodd" d="M69.2343 17.6054H77.1738C78.4085 17.6054 79.015 16.1019 78.1258 15.2452L68.8268 6.28502C68.5611 6.02899 68.2179 5.90097 67.8747 5.90097C67.5315 5.90097 67.1884 6.02899 66.9226 6.28502L66.7951 6.40788C66.6162 6.5803 66.5151 6.8181 66.5151 7.0666V23.7983H69.2343V17.6054Z" fill="#36C7D2"/>
</svg>
