<svg width="87" height="80" viewBox="0 0 87 80" fill="none" xmlns="http://www.w3.org/2000/svg">
<path d="M86.6542 62.9739C86.9215 61.7881 86.7286 60.545 86.1144 59.496C85.5002 58.4471 84.5105 57.6705 83.3456 57.3233L69.4051 53.2713C69.2121 53.215 69.0425 53.0976 68.9218 52.9367C68.8012 52.7759 68.736 52.5802 68.736 52.3791V35.3903C68.736 34.4044 68.3443 33.4588 67.6471 32.7616C66.95 32.0645 66.0044 31.6728 65.0185 31.6728C64.0326 31.6728 63.087 32.0645 62.3899 32.7616C61.6927 33.4588 61.301 34.4044 61.301 35.3903V61.6356C61.301 61.8367 61.2358 62.0323 61.1152 62.1932C60.9945 62.3541 60.8249 62.4715 60.6319 62.5278C60.4412 62.5797 60.2392 62.5719 60.0531 62.5054C59.8669 62.4389 59.7057 62.317 59.591 62.1561C54.0891 54.2007 45.4646 56.7285 49.5167 62.9367L60.6691 79.591C60.7467 79.7179 60.8561 79.8224 60.9865 79.8942C61.1169 79.9659 61.2638 80.0023 61.4126 79.9999H82.8995C83.1203 79.9955 83.3329 79.9157 83.502 79.7736C83.6711 79.6316 83.7865 79.4359 83.8289 79.2192L86.5426 64.3494L86.6542 62.9739Z" fill="#36C7D2"/>
<path d="M20.0988 15.959C20.4455 15.5401 20.8803 15.203 21.3723 14.9716C21.8643 14.7402 22.4013 14.6202 22.945 14.6202H41.5655C42.1094 14.62 42.6467 14.7399 43.1389 14.9713C43.6311 15.2027 44.0662 15.54 44.413 15.959L50.1584 22.9027C51.4873 24.5087 50.3444 26.9362 48.2605 26.9362H16.25C14.1662 26.9362 13.0232 24.5087 14.3534 22.9027L20.0988 15.959ZM17.4755 29.3994V42.6391C17.4755 43.7007 17.8972 44.7188 18.6478 45.4694C19.3985 46.2201 20.4166 46.6418 21.4782 46.6418H43.0311C43.5568 46.6418 44.0773 46.5383 44.5629 46.3371C45.0485 46.1359 45.4898 45.8411 45.8615 45.4694C46.2332 45.0977 46.528 44.6565 46.7292 44.1709C46.9303 43.6852 47.0338 43.1647 47.0338 42.6391V29.3994H17.4755ZM27.3283 35.5574C27.3283 36.2107 27.0687 36.8372 26.6068 37.2991C26.1449 37.7611 25.5183 38.0206 24.8651 38.0206C24.2118 38.0206 23.5853 37.7611 23.1233 37.2991C22.6614 36.8372 22.4019 36.2107 22.4019 35.5574C22.4019 34.9041 22.6614 34.2776 23.1233 33.8157C23.5853 33.3537 24.2118 33.0942 24.8651 33.0942C25.5183 33.0942 26.1449 33.3537 26.6068 33.8157C27.0687 34.2776 27.3283 34.9041 27.3283 35.5574ZM32.2547 38.0206C31.6014 38.0206 30.9748 37.7611 30.5129 37.2991C30.051 36.8372 29.7915 36.2107 29.7915 35.5574C29.7915 34.9041 30.051 34.2776 30.5129 33.8157C30.9748 33.3537 31.6014 33.0942 32.2547 33.0942C32.9079 33.0942 33.5345 33.3537 33.9964 33.8157C34.4583 34.2776 34.7178 34.9041 34.7178 35.5574C34.7178 36.2107 34.4583 36.8372 33.9964 37.2991C33.5345 37.7611 32.9079 38.0206 32.2547 38.0206ZM42.1074 35.5574C42.1074 36.2107 41.8479 36.8372 41.386 37.2991C40.9241 37.7611 40.2975 38.0206 39.6442 38.0206C38.991 38.0206 38.3644 37.7611 37.9025 37.2991C37.4406 36.8372 37.181 36.2107 37.181 35.5574C37.181 34.9041 37.4406 34.2776 37.9025 33.8157C38.3644 33.3537 38.991 33.0942 39.6442 33.0942C40.2975 33.0942 40.9241 33.3537 41.386 33.8157C41.8479 34.2776 42.1074 34.9041 42.1074 35.5574Z" fill="#36C7D2"/>
<path d="M46.4683 70.7062C46.4683 69.7203 46.0767 68.7747 45.3795 68.0776C44.6824 67.3804 43.7368 66.9888 42.7509 66.9888H41.8215C41.575 66.9888 41.3386 66.8908 41.1643 66.7166C40.9901 66.5423 40.8921 66.3059 40.8921 66.0594V64.0891C40.8963 63.8781 40.9722 63.6748 41.1074 63.5126C41.2425 63.3504 41.4288 63.2391 41.6356 63.1969C42.6216 63.0983 43.5279 62.6121 44.1554 61.8453C44.7828 61.0784 45.0799 60.0937 44.9813 59.1077C44.8828 58.1218 44.3965 57.2154 43.6297 56.588C42.8628 55.9605 41.8781 55.6634 40.8921 55.762H9.29367C8.8007 55.762 8.32792 55.5662 7.97934 55.2176C7.63076 54.869 7.43493 54.3962 7.43493 53.9033V9.29367C7.43493 8.8007 7.63076 8.32792 7.97934 7.97934C8.32792 7.63076 8.8007 7.43493 9.29367 7.43493H76.2081C76.701 7.43493 77.1738 7.63076 77.5224 7.97934C77.871 8.32792 78.0668 8.8007 78.0668 9.29367V48.3271C78.0668 49.313 78.4585 50.2586 79.1556 50.9557C79.8528 51.6529 80.7983 52.0445 81.7843 52.0445C82.7702 52.0445 83.7158 51.6529 84.4129 50.9557C85.1101 50.2586 85.5017 49.313 85.5017 48.3271V7.43493C85.5017 5.46307 84.7184 3.57196 83.3241 2.17764C81.9298 0.783321 80.0387 0 78.0668 0H7.43493C5.46307 0 3.57196 0.783321 2.17764 2.17764C0.783321 3.57196 0 5.46307 0 7.43493V55.762C0 57.7339 0.783321 59.625 2.17764 61.0193C3.57196 62.4136 5.46307 63.1969 7.43493 63.1969H32.5278C32.7743 63.1969 33.0107 63.2948 33.185 63.4691C33.3593 63.6434 33.4572 63.8798 33.4572 64.1263V66.0594C33.4572 66.3059 33.3593 66.5423 33.185 66.7166C33.0107 66.8908 32.7743 66.9888 32.5278 66.9888H24.1635C23.1776 66.9888 22.232 67.3804 21.5349 68.0776C20.8377 68.7747 20.4461 69.7203 20.4461 70.7062C20.4461 71.6922 20.8377 72.6377 21.5349 73.3349C22.232 74.032 23.1776 74.4237 24.1635 74.4237H42.7509C43.7368 74.4237 44.6824 74.032 45.3795 73.3349C46.0767 72.6377 46.4683 71.6922 46.4683 70.7062Z" fill="#36C7D2"/>
</svg>
